{
  "accessors": [
    {
      "bufferView": 2,
      "componentType": 5126,
      "count": 1183,
      "max": [
        0.9855252504348755,
        0.9855252504348755,
        0.9855252504348755
      ],
      "min": [
        -0.9855252504348755,
        -0.9855252504348755,
        -0.9855252504348755
      ],
      "type": "VEC3"
    },
    {
      "bufferView": 2,
      "byteOffset": 14196,
      "componentType": 5126,
      "count": 1183,
      "max": [
        1.0,
        1.0,
        1.0
      ],
      "min": [
        -1.0,
        -1.0,
        -1.0
      ],
      "type": "VEC3"
    },
    {
      "bufferView": 1,
      "componentType": 5126,
      "count": 1183,
      "max": [
        0.8750001192092896,
        1.0000001192092896
      ],
      "min": [
        0.125,
        0.0
      ],
      "type": "VEC2"
    },
    {
      "bufferView": 0,
      "componentType": 5125,
      "count": 5184,
      "type": "SCALAR"
    },
    {
      "bufferView": 2,
      "byteOffset": 28392,
      "componentType": 5126,
      "count": 9575,
      "max": [
        6.413527011871338,
        2.3306970596313477,
        0.3403829336166382
      ],
      "min": [
        -3.8722894191741943,
        -3.1014444828033447,
        -0.33792370557785034
      ],
      "type": "VEC3"
    },
    {
      "bufferView": 2,
      "byteOffset": 143292,
      "componentType": 5126,
      "count": 9575,
      "max": [
        1.0,
        1.0,
        1.0
      ],
      "min": [
        -0.9999998807907104,
        -1.0,
        -1.0
      ],
      "type": "VEC3"
    },
    {
      "bufferView": 1,
      "byteOffset": 9464,
      "componentType": 5126,
      "count": 9575,
      "max": [
        1.0000001192092896,
        1.000000238418579
      ],
      "min": [
        0.0,
        0.0
      ],
      "type": "VEC2"
    },
    {
      "bufferView": 0,
      "byteOffset": 20736,
      "componentType": 5125,
      "count": 54528,
      "type": "SCALAR"
    }
  ],
  "asset": {
    "extras": {
      "author": "arogeek (https://sketchfab.com/arogeek)",
      "license": "CC-BY-4.0 (http://creativecommons.org/licenses/by/4.0/)",
      "source": "https://sketchfab.com/3d-models/facebook-61a3637914844efd808b9a14c67b6c29",
      "title": "FACEBOOK"
    },
    "generator": "Sketchfab-15.22.0",
    "version": "2.0"
  },
  "bufferViews": [
    {
      "buffer": 0,
      "byteLength": 238848,
      "name": "floatBufferViews",
      "target": 34963
    },
    {
      "buffer": 0,
      "byteLength": 86064,
      "byteOffset": 238848,
      "byteStride": 8,
      "name": "floatBufferViews",
      "target": 34962
    },
    {
      "buffer": 0,
      "byteLength": 258192,
      "byteOffset": 324912,
      "byteStride": 12,
      "name": "floatBufferViews",
      "target": 34962
    }
  ],
  "buffers": [
    {
      "byteLength": 583104,
      "uri": "scene.bin"
    }
  ],
  "materials": [
    {
      "doubleSided": true,
      "name": "Plane__0",
      "pbrMetallicRoughness": {
        "metallicFactor": 0.0,
        "roughnessFactor": 0.6
      }
    },
    {
      "doubleSided": true,
      "name": "Material.004",
      "pbrMetallicRoughness": {
        "baseColorFactor": [
          0.0557144,
          0.0575967,
          0.8,
          1.0
        ],
        "metallicFactor": 0.0,
        "roughnessFactor": 0.03133841853251001
      }
    }
  ],
  "meshes": [
    {
      "name": "Cube_Material.004_0",
      "primitives": [
        {
          "attributes": {
            "NORMAL": 1,
            "POSITION": 0,
            "TEXCOORD_0": 2
          },
          "indices": 3,
          "material": 1,
          "mode": 4
        }
      ]
    },
    {
      "name": "Plane__0",
      "primitives": [
        {
          "attributes": {
            "NORMAL": 5,
            "POSITION": 4,
            "TEXCOORD_0": 6
          },
          "indices": 7,
          "material": 0,
          "mode": 4
        }
      ]
    }
  ],
  "nodes": [
    {
      "children": [
        1
      ],
      "matrix": [
        1.0,
        0.0,
        0.0,
        0.0,
        0.0,
        2.220446049250313e-16,
        -1.0,
        0.0,
        0.0,
        1.0,
        2.220446049250313e-16,
        0.0,
        0.0,
        0.0,
        0.0,
        1.0
      ],
      "name": "Sketchfab_model"
    },
    {
      "children": [
        2
      ],
      "matrix": [
        0.009999999776482582,
        0.0,
        0.0,
        0.0,
        0.0,
        0.0,
        0.009999999776482582,
        0.0,
        0.0,
        -0.009999999776482582,
        0.0,
        0.0,
        0.0,
        0.0,
        0.0,
        1.0
      ],
      "name": "15b75f19f6804a3193e61b66ad4deebc.fbx"
    },
    {
      "children": [
        3,
        5
      ],
      "name": "RootNode"
    },
    {
      "children": [
        4
      ],
      "matrix": [
        3.1408044808895684e-05,
        -192.7812042236299,
        1.1490653827328826e-05,
        -0.0,
        -3.1408042925430525e-05,
        -1.1490658964051986e-05,
        -192.7812042236299,
        -0.0,
        -35.73609161376858,
        -5.822147983318788e-06,
        5.822148332459067e-06,
        -0.0,
        -41.65264892578125,
        10.537822723388672,
        -3.725290298461914e-07,
        1.0
      ],
      "name": "Cube"
    },
    {
      "mesh": 0,
      "name": "Cube_Material.004_0"
    },
    {
      "children": [
        6
      ],
      "matrix": [
        -1.058682417129379e-06,
        -24.21982955932615,
        -2.6889412429260875e-15,
        0.0,
        -9.989219195161106e-07,
        4.566880626108178e-14,
        -22.85266876220701,
        0.0,
        45.484706878662024,
        -1.988199766803638e-06,
        -1.988199764278729e-06,
        0.0,
        1.0697767734527588,
        41.65264892578125,
        -8.190631866455078,
        1.0
      ],
      "name": "Plane"
    },
    {
      "mesh": 1,
      "name": "Plane__0"
    }
  ],
  "scene": 0,
  "scenes": [
    {
      "name": "Sketchfab_Scene",
      "nodes": [
        0
      ]
    }
  ]
}
